<?xml version="1.0" standalone="no"?>
<!DOCTYPE svg PUBLIC "-//W3C//DTD SVG 20010904//EN"
 "http://www.w3.org/TR/2001/REC-SVG-20010904/DTD/svg10.dtd">
<svg version="1.0" xmlns="http://www.w3.org/2000/svg"
 width="150.000000pt" height="150.000000pt" viewBox="0 0 150.000000 150.000000"
 preserveAspectRatio="xMidYMid meet">
<metadata>
Created by potrace 1.11, written by Peter Selinger 2001-2013
</metadata>
<g transform="translate(0.000000,150.000000) scale(0.100000,-0.100000)"
fill="#000000" stroke="none">
<path d="M9 1486 c6 -8 22 -16 35 -18 21 -4 23 -3 13 14 -7 10 -23 18 -36 18
-19 0 -21 -3 -12 -14z"/>
<path d="M70 1490 c20 -13 40 -13 40 0 0 6 -12 10 -27 10 -22 0 -25 -2 -13
-10z"/>
<path d="M124 1491 c3 -5 15 -7 26 -4 28 7 25 13 -6 13 -14 0 -23 -4 -20 -9z"/>
<path d="M223 1493 c9 -2 23 -2 30 0 6 3 -1 5 -18 5 -16 0 -22 -2 -12 -5z"/>
<path d="M310 1490 c0 -5 7 -7 15 -4 8 4 15 8 15 10 0 2 -7 4 -15 4 -8 0 -15
-4 -15 -10z"/>
<path d="M1320 1484 l-25 -15 25 7 c17 4 22 3 15 -4 -5 -6 -25 -14 -43 -19
-31 -8 -32 -8 -11 -21 12 -8 18 -9 14 -3 -10 16 18 13 89 -10 50 -17 66 -26
68 -43 2 -11 7 -20 11 -18 5 2 15 -5 23 -15 12 -16 14 -8 11 67 l-2 85 -75 2
c-53 2 -82 -2 -100 -13z m154 -19 c-9 -14 -18 -25 -21 -25 -5 0 5 18 20 38 17
22 18 13 1 -13z"/>
<path d="M425 1326 c-28 -12 -55 -51 -55 -79 0 -7 7 -25 15 -41 17 -33 18 -32
-27 -54 -51 -26 -69 -76 -85 -231 -7 -75 -17 -145 -22 -156 -9 -20 -9 -20 -8
0 1 21 -54 118 -94 165 -27 33 -16 9 34 -67 26 -41 40 -74 41 -97 1 -20 0 -36
-1 -36 -6 0 -92 180 -118 245 -31 79 -96 186 -102 168 -2 -6 9 -38 26 -70 16
-33 48 -106 71 -164 22 -57 56 -131 74 -165 l34 -61 -29 2 c-16 1 -29 -2 -29
-7 0 -4 -5 -8 -11 -8 -6 0 -8 7 -5 16 5 14 4 15 -8 5 -15 -13 -32 -3 -77 43
-11 11 -19 15 -19 8 0 -6 10 -18 22 -26 12 -9 17 -16 10 -16 -7 0 -11 -4 -8
-9 7 -10 -20 -9 -30 2 -4 4 -11 7 -16 7 -4 0 -8 -157 -8 -350 l0 -350 750 0
750 0 0 255 c0 222 -2 254 -15 249 -8 -4 -12 -11 -8 -17 8 -13 -47 0 -62 14
-12 12 32 52 47 43 5 -3 12 4 15 17 6 22 7 22 14 3 6 -15 8 -12 8 14 1 29 -2
32 -29 32 -22 0 -33 6 -39 22 -7 19 -8 20 -15 3 -6 -17 -7 -17 -26 0 -19 18
-20 17 -20 -3 0 -28 -26 -29 -35 -2 -11 36 -20 21 -22 -36 -1 -31 -7 -61 -14
-68 -9 -8 -10 -8 -5 1 7 13 -23 27 -70 32 -6 1 -9 15 -6 34 l4 32 -29 -28
c-16 -15 -31 -25 -34 -23 -2 2 -19 6 -37 9 -19 3 -36 7 -38 10 -2 2 7 21 21
41 26 38 33 58 14 39 -11 -11 -84 -6 -111 8 -10 6 -19 5 -23 -1 -4 -6 -14 -9
-23 -8 -11 2 -17 -3 -16 -14 1 -10 -3 -16 -10 -15 -6 1 -10 -4 -9 -10 2 -7 -1
-13 -7 -13 -5 0 -7 -6 -5 -12 3 -7 -6 -18 -20 -25 -14 -6 -23 -7 -19 -2 3 5
-2 9 -11 9 -10 0 -15 5 -12 14 4 9 -2 12 -21 10 -47 -5 -82 7 -82 28 0 12 -5
18 -12 15 -7 -2 -12 -10 -10 -16 1 -8 -7 -9 -24 -5 -19 5 -25 4 -20 -5 4 -6 2
-11 -4 -11 -6 0 -8 -5 -4 -12 4 -7 3 -8 -4 -4 -7 4 -12 16 -12 27 0 10 -4 19
-10 19 -5 0 -10 -11 -10 -25 0 -14 -3 -25 -7 -25 -5 0 -9 69 -10 154 l-2 154
26 6 c16 5 34 1 49 -9 13 -8 49 -22 81 -30 32 -8 81 -27 109 -41 35 -19 57
-25 70 -19 16 6 15 9 -13 16 -44 13 -53 31 -11 22 18 -3 45 -18 59 -32 59 -58
114 -83 160 -74 31 6 29 18 -6 26 -11 3 -3 5 18 6 73 2 146 50 80 52 l-28 1
25 8 c14 4 62 8 107 9 45 1 85 6 88 11 4 6 -7 10 -25 10 -42 0 -121 20 -115
30 3 4 30 11 60 15 30 3 55 10 55 15 0 5 8 11 18 14 9 3 23 15 30 27 12 19 11
24 -8 43 l-22 21 6 -22 c5 -16 1 -26 -17 -38 -49 -32 -416 -15 -458 22 -8 7
-23 13 -32 13 -9 0 -18 4 -21 9 -4 5 -28 12 -55 16 -28 4 -60 16 -73 26 -43
38 -87 60 -140 69 -97 18 -139 27 -145 33 -12 13 51 27 117 27 41 0 72 5 76
11 5 8 -1 10 -19 7 -14 -3 -32 -1 -39 3 -10 7 -9 9 5 9 14 0 97 45 97 53 0 1
-19 3 -41 4 -39 1 -82 22 -48 24 26 1 -126 38 -156 38 -16 0 -44 -6 -60 -13z
m-98 -418 c-3 -8 -6 -5 -6 6 -1 11 2 17 5 13 3 -3 4 -12 1 -19z m242 -45 c13
-47 20 -158 12 -172 -16 -25 -54 130 -45 179 9 41 21 38 33 -7z m-252 -75 c-3
-8 -6 -5 -6 6 -1 11 2 17 5 13 3 -3 4 -12 1 -19z m-137 -128 c0 -5 -2 -10 -4
-10 -3 0 -8 5 -11 10 -3 6 -1 10 4 10 6 0 11 -4 11 -10z m1218 -121 c-16 -11
-55 -12 -61 -1 -3 4 0 18 5 32 6 15 12 20 15 12 7 -18 41 -35 40 -19 -1 34 7
48 10 18 3 -21 0 -37 -9 -42z m62 47 c0 -23 -16 -27 -17 -5 -1 10 2 19 8 19 5
0 9 -6 9 -14z m-879 -78 c-3 -62 -11 -60 -11 2 0 29 3 50 7 46 4 -3 6 -25 4
-48z m-358 -205 c-13 -2 -35 -2 -50 0 -16 2 -5 4 22 4 28 0 40 -2 28 -4z m247
-9 c0 -2 -9 -4 -21 -4 -11 0 -18 4 -14 10 5 8 35 3 35 -6z m390 -4 c-58 -4
-139 -7 -180 -7 -66 0 -69 1 -25 6 28 3 109 7 180 7 l130 2 -105 -8z"/>
<path d="M1492 1250 c0 -14 2 -19 5 -12 2 6 2 18 0 25 -3 6 -5 1 -5 -13z"/>
<path d="M1176 715 c-2 -7 2 -16 10 -19 12 -4 14 -14 9 -36 -5 -25 -4 -29 9
-24 20 8 21 38 1 54 -14 11 -13 14 1 24 13 10 13 12 -5 13 -10 1 -22 -4 -25
-12z"/>
<path d="M895 670 c3 -5 8 -10 11 -10 2 0 4 5 4 10 0 6 -5 10 -11 10 -5 0 -7
-4 -4 -10z"/>
</g>
</svg>
